{"title":"Excision 2012 STV DVDRip XviD-MARGiN ","uid":7756099,"size":741200048,"categoryP":"video","categoryS":"movies","magnet":"?xt=urn:btih:3c75738f9cbb336b58b0e86b40c0d7acf53efe31&amp;dn=Excision+2012+STV+DVDRip+XviD-MARGiN+&amp;tr=udp%3A%2F%2Ftracker.openbittorrent.com%3A80&amp;tr=udp%3A%2F%2Fopen.demonii.com%3A1337&amp;tr=udp%3A%2F%2Ftracker.coppersurfer.tk%3A6969&amp;tr=udp%3A%2F%2Fexodus.desync.com%3A6969","seeders":0,"leechers":0,"uploader":"lyrical1986","files":5,"time":1351104717,"description":"A disturbed and delusional high school student with aspirations of a career in medicine goes to extremes to earn the approval of her controlling mother.\n\nAnnaLynne McCord...\tPauline\nTraci Lords\t...\tPhyllis\nAriel Winter\t...\tGrace\nRoger Bart\t...\tBob\nJeremy Sumpter\t...\tAdam\nJohn Waters\t...\tWilliam\nMalcolm McDowell...\tMr. Cooper\n &lt;a href=&quot;\nhttp://www.imdb.com/title/tt1984153/&quot; rel=&quot;nofollow&quot; target=&quot;_NEW&quot;&gt;\nhttp://www.imdb.com/title/tt1984153/&lt;/a&gt;\n\nFormat                           : AVI\nFormat/Info                      : Audio Video Interleave\nFile size                        : 700 MiB\nDuration                         : 1h 21mn\nOverall bit rate                 : 1 203 Kbps\n\nVideo\nID                               : 0\nFormat                           : MPEG-4 Visual\nFormat profile                   : Advanced Simple@L5\nFormat settings, BVOP            : 1\nFormat settings, QPel            : No\nFormat settings, GMC             : No warppoints\nFormat settings, Matrix          : Default (H.263)\nCodec ID                         : XVID\nCodec ID/Hint                    : XviD\nDuration                         : 1h 21mn\nBit rate                         : 1 052 Kbps\nWidth                            : 640 pixels\nHeight                           : 272 pixels\nDisplay aspect ratio             : 2.35:1\nFrame rate                       : 23.976 fps\nColor space                      : YUV\nChroma subsampling               : 4:2:0\nBit depth                        : 8 bits\nScan type                        : Progressive\nCompression mode                 : Lossy\nBits/(Pixel*Frame)               : 0.252\nStream size                      : 612 MiB (87%)\nWriting library                  : XviD 64\n\nAudio\nID                               : 1\nFormat                           : MPEG Audio\nFormat version                   : Version 1\nFormat profile                   : Layer 3\nMode                             : Joint stereo\nMode extension                   : MS Stereo\nCodec ID                         : 55\nCodec ID/Hint                    : MP3\nDuration                         : 1h 21mn\nBit rate mode                    : Variable\nBit rate                         : 139 Kbps\nNominal bit rate                 : 160 Kbps\nChannel(s)                       : 2 channels\nSampling rate                    : 48.0 KHz\nCompression mode                 : Lossy\nStream size                      : 80.7 MiB (12%)\nAlignment                        : Aligned on interleaves\nInterleave, duration             : 24 ms (0.58 video frame)\nInterleave, preload duration     : 60 ms\n &lt;a href=&quot;\nhttp://imageshack.us/a/img10/1407/vlcsnap2012102417h47m21.png&quot; rel=&quot;nofollow&quot; target=&quot;_NEW&quot;&gt;\nhttp://imageshack.us/a/img10/1407/vlcsnap2012102417h47m21.png&lt;/a&gt; &lt;a href=&quot;\nhttp://imageshack.us/a/img109/8281/vlcsnap2012102417h47m24.png&quot; rel=&quot;nofollow&quot; target=&quot;_NEW&quot;&gt;\nhttp://imageshack.us/a/img109/8281/vlcsnap2012102417h47m24.png&lt;/a&gt; &lt;a href=&quot;\nhttp://imageshack.us/a/img15/4773/vlcsnap2012102417h47m32.png&quot; rel=&quot;nofollow&quot; target=&quot;_NEW&quot;&gt;\nhttp://imageshack.us/a/img15/4773/vlcsnap2012102417h47m32.png&lt;/a&gt;","torrent":{"xt":"urn:btih:3c75738f9cbb336b58b0e86b40c0d7acf53efe31","amp;dn":"Excision+2012+STV+DVDRip+XviD-MARGiN+","amp;tr":["udp%3A%2F%2Ftracker.openbittorrent.com%3A80","udp%3A%2F%2Fopen.demonii.com%3A1337","udp%3A%2F%2Ftracker.coppersurfer.tk%3A6969","udp%3A%2F%2Fexodus.desync.com%3A6969"],"infoHash":"3c75738f9cbb336b58b0e86b40c0d7acf53efe31","infoHashBuffer":{"type":"Buffer","data":[60,117,115,143,156,187,51,107,88,176,232,107,64,192,215,172,245,62,254,49]},"announce":[],"urlList":[]}}